<svg xmlns="http://www.w3.org/2000/svg" width="16.269" height="16.099" viewBox="0 0 16.269 16.099">
  <g id="Group_11" data-name="Group 11" transform="translate(-16.736 -14.324)">
    <g id="Group_89" data-name="Group 89" transform="translate(16.736 14.324)">
      <path id="Path_74" data-name="Path 74" d="M121.469,12.423h3.389V23.1h-3.389ZM123.164,7A1.864,1.864,0,1,1,121.3,8.864,1.881,1.881,0,0,1,123.164,7" transform="translate(-121.3 -7)" fill="#0b2850"/>
      <path id="Path_75" data-name="Path 75" d="M124.7,10.339h3.22v1.356h0A3.579,3.579,0,0,1,131.14,10c3.389,0,4.067,2.2,4.067,5.084v5.931h-3.389V15.762c0-1.186,0-2.881-1.695-2.881s-2.034,1.356-2.034,2.711v5.253H124.7Z" transform="translate(-118.938 -4.916)" fill="#0b2850"/>
    </g>
  </g>
</svg>
